# xmcd
#
# Track frame offsets:
#	150
#	17367
#	33239
#	48459
#	67448
#	87403
#	104995
#	122883
#	139558
#	159401
#	182159
#	200653
#	220025
#	236987
#	255342
#	272702
#	290502
#	305374
#	320006
#	336108
#
# Disc length: 4706 seconds
#
# Revision: 1
# Processed by: cddbd v1.5.1PL0 Copyright (c) Steve Scherf et al.
# Submitted via: audiograbber 1.83.01
#
DISCID=34126014
DTITLE=Charlie Landsborough - 2005 - A Portrait Of Charlie Landsborough [CDT
DTITLE=wo)
DYEAR=2005
DGENRE=Country
TTITLE0=The Twelfth Of Never
TTITLE1=Raining In My Heart
TTITLE2=Part Of Me
TTITLE3=Love You Every Second
TTITLE4=In The Bleak Mid-Winter
TTITLE5=Smoke Gets In Your Eyes
TTITLE6=Everytime We Say Goodbye
TTITLE7=Marie
TTITLE8=Imagine
TTITLE9=When You Were Sweet Sixteen
TTITLE10=Two At A Time
TTITLE11=Fly Like A Rocket
TTITLE12=Gasoline Alley
TTITLE13=Why Worry
TTITLE14=Fields Of Gold
TTITLE15=If You Could Read My Mind
TTITLE16=Takin' My Time
TTITLE17=Sunshine
TTITLE18=What'll I Do
TTITLE19=Smile
EXTD=
EXTT0=
EXTT1=
EXTT2=
EXTT3=
EXTT4=
EXTT5=
EXTT6=
EXTT7=
EXTT8=
EXTT9=
EXTT10=
EXTT11=
EXTT12=
EXTT13=
EXTT14=
EXTT15=
EXTT16=
EXTT17=
EXTT18=
EXTT19=
PLAYORDER=
